<?xml version="1.0" encoding="UTF-8"?>
<svg width="50px" height="58px" viewBox="0 0 50 58" version="1.1" xmlns="http://www.w3.org/2000/svg" xmlns:xlink="http://www.w3.org/1999/xlink">
    <title>space-man</title>
    <g id="Page-1" stroke="none" stroke-width="1" fill="none" fill-rule="evenodd">
        <g id="Zacs-code-challenge" transform="translate(-491.000000, -623.000000)" fill="#EC2486" fill-rule="nonzero">
            <path d="M498.142857,648 L499.649554,648 C502.40625,654.305804 508.678571,658.714286 516,658.714286 C523.321429,658.714286 529.59375,654.305804 532.350446,648 L533.857143,648 C534.839286,648 535.642857,647.196429 535.642857,646.214286 L535.642857,635.5 C535.642857,634.517857 534.839286,633.714286 533.857143,633.714286 L532.350446,633.714286 C529.59375,627.408482 523.321429,623 516,623 C508.678571,623 502.40625,627.408482 499.649554,633.714286 L498.142857,633.714286 C497.160714,633.714286 496.357143,634.517857 496.357143,635.5 L496.357143,646.214286 C496.357143,647.196429 497.160714,648 498.142857,648 Z M502.607143,638.178571 C502.607143,635.712054 505.006696,633.714286 507.964286,633.714286 L524.035714,633.714286 C526.993304,633.714286 529.392857,635.712054 529.392857,638.178571 L529.392857,640.857143 C529.392857,646.772321 524.59375,651.571429 518.678571,651.571429 L513.321429,651.571429 C507.40625,651.571429 502.607143,646.772321 502.607143,640.857143 L502.607143,638.178571 Z M510.642857,646.214286 L511.982143,642.196429 L516,640.857143 L511.982143,639.517857 L510.642857,635.5 L509.303571,639.517857 L505.285714,640.857143 L509.303571,642.196429 L510.642857,646.214286 Z M527.5625,658.870536 C524.225446,661.024554 520.263393,662.285714 516,662.285714 C511.736607,662.285714 507.774554,661.024554 504.4375,658.870536 C496.904018,659.662946 491,665.96875 491,673.714286 L491,674.785714 C491,677.743304 493.399554,680.142857 496.357143,680.142857 L505.285714,680.142857 L505.285714,673 C505.285714,671.024554 506.881696,669.428571 508.857143,669.428571 L523.142857,669.428571 C525.118304,669.428571 526.714286,671.024554 526.714286,673 L526.714286,680.142857 L535.642857,680.142857 C538.600446,680.142857 541,677.743304 541,674.785714 L541,673.714286 C541,665.96875 535.095982,659.662946 527.5625,658.870536 Z M521.357143,673 C520.375,673 519.571429,673.803571 519.571429,674.785714 C519.571429,675.767857 520.375,676.571429 521.357143,676.571429 C522.339286,676.571429 523.142857,675.767857 523.142857,674.785714 C523.142857,673.803571 522.339286,673 521.357143,673 Z M510.642857,673 C509.660714,673 508.857143,673.803571 508.857143,674.785714 L508.857143,680.142857 L512.428571,680.142857 L512.428571,674.785714 C512.428571,673.803571 511.625,673 510.642857,673 Z" id="space-man"></path>
        </g>
    </g>
</svg>